<svg width="126" height="29" viewBox="0 0 126 29" fill="none" xmlns="http://www.w3.org/2000/svg">
<path d="M0 28.215H28.215V4.29049e-08H0V28.215ZM22.7843 11.3927H16.8223V5.4307H22.7843V11.3927ZM5.4296 5.4307H11.3949V16.8223H22.7843V22.7843H5.4296V5.4307ZM46.5883 4.29049e-08C43.7981 4.29049e-08 41.0705 0.827392 38.7506 2.37754C36.4306 3.9277 34.6224 6.13099 33.5547 8.7088C32.4869 11.2866 32.2075 14.1232 32.7519 16.8597C33.2962 19.5963 34.6398 22.11 36.6128 24.083C38.5858 26.056 41.0995 27.3996 43.8361 27.9439C46.5726 28.4883 49.4092 28.2089 51.987 27.1411C54.5648 26.0734 56.7681 24.2652 58.3182 21.9452C59.8684 19.6252 60.6958 16.8977 60.6958 14.1075C60.6914 10.3673 59.2037 6.78154 56.559 4.13682C53.9143 1.49209 50.3285 0.00436689 46.5883 4.29049e-08V4.29049e-08ZM46.5883 22.7843C44.8722 22.7843 43.1946 22.2754 41.7677 21.322C40.3408 20.3686 39.2287 19.0135 38.572 17.428C37.9153 15.8425 37.7434 14.0979 38.0782 12.4147C38.413 10.7316 39.2394 9.18555 40.4529 7.97208C41.6663 6.7586 43.2124 5.93222 44.8955 5.59742C46.5787 5.26263 48.3233 5.43446 49.9088 6.09118C51.4942 6.74791 52.8494 7.86004 53.8028 9.28693C54.7562 10.7138 55.2651 12.3914 55.2651 14.1075C55.2616 16.4077 54.3463 18.6126 52.7199 20.2391C51.0934 21.8655 48.8885 22.7808 46.5883 22.7843V22.7843ZM111.179 4.29049e-08C108.389 -0.00021752 105.661 0.826987 103.341 2.37701C101.021 3.92703 99.2127 6.13024 98.1448 8.70803C97.0768 11.2858 96.7973 14.1224 97.3415 16.8591C97.8857 19.5957 99.2293 22.1095 101.202 24.0826C103.175 26.0557 105.689 27.3994 108.425 27.9439C111.162 28.4883 113.999 28.209 116.577 27.1412C119.154 26.0735 121.358 24.2653 122.908 21.9453C124.458 19.6253 125.286 16.8977 125.286 14.1075C125.281 10.3675 123.794 6.7819 121.149 4.1372C118.505 1.49251 114.919 0.00465795 111.179 4.29049e-08V4.29049e-08ZM111.179 22.7843C109.463 22.7845 107.785 22.2758 106.358 21.3225C104.931 20.3692 103.819 19.0142 103.162 17.4287C102.505 15.8433 102.333 14.0986 102.668 12.4154C103.003 10.7322 103.829 9.18605 105.042 7.97247C106.256 6.75888 107.802 5.93239 109.485 5.5975C111.168 5.26262 112.913 5.43438 114.498 6.09108C116.084 6.74777 117.439 7.8599 118.392 9.28682C119.346 10.7137 119.855 12.3913 119.855 14.1075C119.851 16.4075 118.936 18.6123 117.31 20.2387C115.684 21.8651 113.479 22.7805 111.179 22.7843V22.7843ZM78.8832 4.29049e-08C76.093 4.29049e-08 73.3654 0.827392 71.0455 2.37754C68.7255 3.9277 66.9173 6.13099 65.8496 8.7088C64.7818 11.2866 64.5024 14.1232 65.0468 16.8597C65.5911 19.5963 66.9347 22.11 68.9077 24.083C70.8807 26.056 73.3944 27.3996 76.131 27.9439C78.8675 28.4883 81.7041 28.2089 84.2819 27.1411C86.8597 26.0734 89.063 24.2652 90.6131 21.9452C92.1633 19.6252 92.9907 16.8977 92.9907 14.1075C92.9863 10.3673 91.4986 6.78154 88.8539 4.13682C86.2092 1.49209 82.6234 0.00436689 78.8832 4.29049e-08ZM78.8832 22.7843C77.2843 22.7851 75.7163 22.3441 74.3522 21.51C72.9882 20.6759 71.8811 19.4811 71.1532 18.0575C70.4254 16.6339 70.105 15.0368 70.2275 13.4426C70.3501 11.8484 70.9107 10.3191 71.8475 9.02345C72.7844 7.72778 74.061 6.71617 75.5365 6.10028C77.012 5.48438 78.629 5.28816 80.209 5.53326C81.789 5.77837 83.2705 6.45527 84.49 7.48926C85.7096 8.52324 86.6197 9.8741 87.12 11.3927H78.8832V16.8223H87.12C86.547 18.5551 85.4431 20.0636 83.9646 21.1338C82.4862 22.2039 80.7083 22.7814 78.8832 22.7843V22.7843Z" fill="#0D0E10"/>
</svg>
