<?xml version="1.0" standalone="no"?>
<!DOCTYPE svg PUBLIC "-//W3C//DTD SVG 20010904//EN"
 "http://www.w3.org/TR/2001/REC-SVG-20010904/DTD/svg10.dtd">
<svg version="1.0" xmlns="http://www.w3.org/2000/svg"
 width="290.000000pt" height="290.000000pt" viewBox="0 0 290.000000 290.000000"
 preserveAspectRatio="xMidYMid meet">
<metadata>
Created by potrace 1.14, written by Peter Selinger 2001-2017
</metadata>
<g transform="translate(0.000000,290.000000) scale(0.100000,-0.100000)"
fill="#000000" stroke="none">
<path d="M1237 2874 c-217 -29 -438 -110 -605 -222 -11 -7 -7 -24 18 -83 17
-40 33 -75 35 -77 2 -2 44 21 95 52 150 90 315 146 499 167 92 11 389 7 476
-6 169 -26 358 -93 474 -169 41 -26 74 -46 75 -44 1 2 17 36 35 77 38 86 46
74 -99 150 -145 76 -336 133 -525 156 -104 13 -381 12 -478 -1z"/>
<path d="M1355 2439 c-133 -12 -265 -48 -368 -100 -35 -18 -74 -44 -171 -111
-12 -8 -20 11 340 -803 332 -748 336 -757 341 -752 10 11 232 522 227 526 -2
3 -67 5 -142 6 l-137 0 0 140 0 140 202 0 c119 0 206 5 212 10 5 6 79 169 165
364 153 344 156 354 139 373 -28 31 -121 92 -188 123 -147 67 -410 103 -620
84z"/>
<path d="M348 2388 c-196 -240 -308 -580 -308 -937 -1 -151 5 -215 31 -343
122 -612 581 -1025 1219 -1097 79 -9 347 -6 415 4 244 37 352 67 500 140 61
29 136 73 168 96 l57 43 0 118 0 118 -48 -46 c-150 -147 -392 -259 -647 -299
-89 -14 -369 -17 -458 -5 -293 38 -524 150 -723 348 -174 174 -289 397 -336
657 -20 108 -17 440 5 545 38 181 109 353 198 481 l42 59 -34 80 c-19 44 -37
80 -40 80 -4 0 -22 -19 -41 -42z"/>
<path d="M2571 2374 c-12 -27 -29 -66 -39 -87 l-17 -39 36 -74 c20 -41 46
-104 57 -142 26 -80 64 -261 58 -271 -5 -8 -262 -9 -269 -1 -2 3 -13 34 -23
69 l-19 64 -88 -199 c-48 -110 -87 -201 -87 -204 0 -3 119 -5 265 -5 l265 1 1
-416 1 -415 29 62 c36 79 82 239 106 374 14 81 18 156 18 339 0 129 -4 264 -8
300 -11 94 -55 283 -84 365 -31 87 -115 248 -152 294 l-29 35 -21 -50z"/>
<path d="M566 1900 c-15 -33 -39 -104 -54 -158 -24 -90 -26 -112 -26 -297 0
-184 3 -208 27 -298 14 -54 42 -131 62 -172 37 -79 133 -213 182 -255 156
-137 282 -205 450 -244 l61 -14 -18 42 c-9 22 -36 82 -58 131 -22 50 -85 191
-140 315 -55 124 -114 255 -131 293 -17 37 -31 69 -31 71 0 2 -18 43 -40 90
-22 47 -40 88 -40 91 0 3 -15 38 -34 77 -19 40 -42 90 -51 111 -74 170 -117
263 -124 270 -4 4 -20 -19 -35 -53z"/>
<path d="M2051 1200 c-3 -3 -35 -70 -70 -150 -35 -80 -75 -170 -89 -200 -14
-30 -58 -128 -98 -218 l-73 -164 42 7 c65 11 198 61 268 101 96 54 152 101
244 209 61 71 131 251 148 385 l5 35 -185 0 c-101 0 -188 -2 -192 -5z"/>
</g>
</svg>
